<svg width="304" height="148" viewBox="0 0 304 148" fill="none" xmlns="http://www.w3.org/2000/svg">
<g filter="url(#filter0_d_116_52)">
<path fill-rule="evenodd" clip-rule="evenodd" d="M153.93 140H23.909C17.2814 140 11.1091 136.876 7.52753 131.708C3.94599 126.539 3.44672 120.036 6.20305 114.45C15.5 80 13.9545 49.0788 26.3858 23.8818C33.5644 9.3313 49.239 0 66.5 0C96.3889 0 201.889 0 236.299 0C260.875 0 281.823 16.5208 285.761 39.0066C290.285 64.8665 296.05 97.7991 299.742 118.894C300.664 124.16 299.047 129.535 295.316 133.597C291.586 137.66 286.123 140 280.368 140H181.371H175.525H153.93Z" fill="#E7ECFF"/>
<path fill-rule="evenodd" clip-rule="evenodd" d="M153.93 140H23.909C17.2814 140 11.1091 136.876 7.52753 131.708C3.94599 126.539 3.44672 120.036 6.20305 114.45C15.5 80 13.9545 49.0788 26.3858 23.8818C33.5644 9.3313 49.239 0 66.5 0C96.3889 0 201.889 0 236.299 0C260.875 0 281.823 16.5208 285.761 39.0066C290.285 64.8665 296.05 97.7991 299.742 118.894C300.664 124.16 299.047 129.535 295.316 133.597C291.586 137.66 286.123 140 280.368 140H181.371H175.525H153.93Z" fill="url(#paint0_radial_116_52)" fill-opacity="0.2"/>
<path d="M7.09982 114.892L7.14305 114.805L7.16851 114.711C11.0032 100.501 13.0024 86.8802 14.8823 74.073C15.2905 71.2921 15.693 68.5495 16.1075 65.8476C18.4363 50.6673 21.141 36.7727 27.2826 24.3243L26.3858 23.8818L27.2826 24.3243C34.2796 10.1418 49.589 1 66.5 1H66.676H66.8537H67.0331H67.2143H67.3971H67.5817H67.7679H67.9559H68.1455H68.3367H68.5297H68.7243H68.9205H69.1184H69.318H69.5191H69.7219H69.9263H70.1323H70.34H70.5492H70.76H70.9724H71.1864H71.402H71.6191H71.8378H72.058H72.2798H72.5032H72.728H72.9544H73.1823H73.4118H73.6427H73.8751H74.109H74.3445H74.5814H74.8197H75.0596H75.3009H75.5436H75.7878H76.0335H76.2806H76.5291H76.779H77.0304H77.2831H77.5373H77.7929H78.0498H78.3081H78.5678H78.8289H79.0914H79.3552H79.6203H79.8868H80.1546H80.4238H80.6943H80.9661H81.2392H81.5136H81.7893H82.0663H82.3446H82.6242H82.905H83.1871H83.4705H83.7551H84.041H84.3281H84.6164H84.906H85.1967H85.4887H85.7819H86.0763H86.3719H86.6687H86.9666H87.2658H87.566H87.8675H88.1701H88.4739H88.7788H89.0848H89.3919H89.7002H90.0096H90.3201H90.6317H90.9444H91.2582H91.573H91.889H92.206H92.524H92.8432H93.1633H93.4846H93.8068H94.1301H94.4544H94.7797H95.106H95.4333H95.7617H96.091H96.4213H96.7525H97.0848H97.418H97.7522H98.0873H98.4233H98.7603H99.0982H99.4371H99.7768H100.118H100.459H100.802H101.145H101.489H101.834H102.18H102.527H102.875H103.224H103.573H103.923H104.274H104.626H104.979H105.332H105.687H106.042H106.398H106.755H107.112H107.47H107.83H108.189H108.55H108.911H109.273H109.636H110H110.364H110.729H111.094H111.461H111.828H112.196H112.564H112.933H113.303H113.673H114.044H114.416H114.789H115.162H115.535H115.909H116.284H116.66H117.036H117.413H117.79H118.168H118.546H118.925H119.305H119.685H120.065H120.447H120.828H121.211H121.594H121.977H122.361H122.745H123.13H123.515H123.901H124.287H124.674H125.061H125.449H125.837H126.226H126.615H127.004H127.394H127.784H128.175H128.566H128.958H129.35H129.742H130.135H130.528H130.921H131.315H131.709H132.103H132.498H132.893H133.289H133.685H134.081H134.477H134.874H135.271H135.668H136.066H136.464H136.862H137.26H137.659H138.058H138.457H138.856H139.256H139.656H140.056H140.456H140.856H141.257H141.658H142.059H142.46H142.861H143.263H143.665H144.066H144.468H144.871H145.273H145.675H146.078H146.48H146.883H147.286H147.689H148.092H148.495H148.898H149.301H149.704H150.107H150.511H150.914H151.318H151.721H152.124H152.528H152.931H153.335H153.738H154.142H154.545H154.949H155.352H155.755H156.159H156.562H156.965H157.368H157.771H158.174H158.577H158.98H159.382H159.785H160.187H160.59H160.992H161.394H161.796H162.198H162.599H163.001H163.402H163.803H164.204H164.605H165.006H165.406H165.806H166.206H166.606H167.006H167.405H167.804H168.203H168.602H169H169.398H169.796H170.193H170.59H170.987H171.384H171.78H172.176H172.572H172.968H173.363H173.757H174.152H174.546H174.94H175.333H175.726H176.118H176.511H176.903H177.294H177.685H178.076H178.466H178.856H179.245H179.634H180.022H180.41H180.798H181.185H181.572H181.958H182.344H182.729H183.114H183.498H183.882H184.265H184.647H185.03H185.411H185.792H186.173H186.553H186.932H187.311H187.69H188.067H188.444H188.821H189.197H189.572H189.947H190.321H190.695H191.068H191.44H191.811H192.182H192.553H192.922H193.291H193.659H194.027H194.394H194.76H195.126H195.49H195.854H196.218H196.58H196.942H197.303H197.664H198.024H198.382H198.741H199.098H199.454H199.81H200.165H200.519H200.873H201.225H201.577H201.928H202.278H202.627H202.976H203.323H203.67H204.016H204.361H204.705H205.048H205.39H205.732H206.072H206.412H206.75H207.088H207.425H207.761H208.095H208.429H208.762H209.094H209.426H209.756H210.085H210.413H210.74H211.066H211.391H211.715H212.038H212.36H212.681H213.001H213.32H213.638H213.955H214.27H214.585H214.898H215.211H215.522H215.833H216.142H216.45H216.757H217.062H217.367H217.671H217.973H218.274H218.574H218.873H219.171H219.467H219.763H220.057H220.35H220.641H220.932H221.221H221.509H221.796H222.082H222.366H222.649H222.931H223.211H223.491H223.769H224.045H224.321H224.595H224.868H225.139H225.41H225.678H225.946H226.212H226.477H226.74H227.003H227.263H227.523H227.781H228.037H228.293H228.547H228.799H229.05H229.3H229.548H229.795H230.04H230.284H230.526H230.767H231.007H231.245H231.481H231.717H231.95H232.182H232.413H232.642H232.869H233.096H233.32H233.543H233.764H233.984H234.203H234.42H234.635H234.848H235.06H235.271H235.48H235.687H235.893H236.097H236.299C260.444 1 280.931 17.2239 284.776 39.1791C288.229 58.9203 292.406 82.7835 295.832 102.356L298.757 119.067C299.624 124.015 298.108 129.079 294.58 132.921C291.048 136.767 285.856 139 280.368 139H181.371H175.525H153.93H23.909C17.5883 139 11.7325 136.02 8.34946 131.138C4.97245 126.265 4.50621 120.149 7.09982 114.892Z" stroke="#6A8BFF" stroke-width="2"/>
</g>
<defs>
<filter id="filter0_d_116_52" x="0.439453" y="0" width="303.556" height="148" filterUnits="userSpaceOnUse" color-interpolation-filters="sRGB">
<feFlood flood-opacity="0" result="BackgroundImageFix"/>
<feColorMatrix in="SourceAlpha" type="matrix" values="0 0 0 0 0 0 0 0 0 0 0 0 0 0 0 0 0 0 127 0" result="hardAlpha"/>
<feOffset dy="4"/>
<feGaussianBlur stdDeviation="2"/>
<feComposite in2="hardAlpha" operator="out"/>
<feColorMatrix type="matrix" values="0 0 0 0 0 0 0 0 0 0 0 0 0 0 0 0 0 0 0.25 0"/>
<feBlend mode="normal" in2="BackgroundImageFix" result="effect1_dropShadow_116_52"/>
<feBlend mode="normal" in="SourceGraphic" in2="effect1_dropShadow_116_52" result="shape"/>
</filter>
<radialGradient id="paint0_radial_116_52" cx="0" cy="0" r="1" gradientUnits="userSpaceOnUse" gradientTransform="translate(146.682 61.9334) rotate(29.2058) scale(148.76 564.463)">
<stop stop-color="#0038FF" stop-opacity="0"/>
<stop offset="1" stop-color="#0038FF"/>
</radialGradient>
</defs>
</svg>
