<svg width="300" height="105" viewBox="0 0 300 105" fill="none" xmlns="http://www.w3.org/2000/svg">
<path d="M279.763 53.0639L279.521 53.5259L279.762 53.9885L297.861 88.8184C299.49 91.955 299.365 95.7141 297.53 98.7351L298.341 99.2275L297.53 98.7353C295.696 101.756 292.417 103.601 288.883 103.601H288.557H288.229H287.898H287.565H287.229H286.891H286.55H286.207H285.861H285.513H285.163H284.81H284.455H284.097H283.737H283.375H283.01H282.643H282.273H281.902H281.528H281.151H280.773H280.392H280.008H279.623H279.235H278.845H278.453H278.058H277.662H277.263H276.862H276.458H276.053H275.645H275.235H274.823H274.409H273.993H273.575H273.154H272.732H272.307H271.88H271.451H271.02H270.587H270.152H269.715H269.276H268.835H268.392H267.947H267.5H267.051H266.6H266.147H265.693H265.236H264.777H264.316H263.854H263.39H262.923H262.455H261.985H261.513H261.039H260.564H260.086H259.607H259.126H258.643H258.159H257.672H257.184H256.694H256.203H255.709H255.214H254.718H254.219H253.719H253.217H252.713H252.208H251.701H251.193H250.683H250.171H249.657H249.142H248.626H248.107H247.588H247.066H246.543H246.019H245.493H244.965H244.436H243.906H243.374H242.84H242.305H241.769H241.231H240.691H240.15H239.608H239.065H238.519H237.973H237.425H236.876H236.325H235.773H235.22H234.665H234.109H233.552H232.993H232.433H231.872H231.31H230.746H230.181H229.614H229.047H228.478H227.908H227.337H226.765H226.191H225.616H225.04H224.463H223.885H223.305H222.725H222.143H221.561H220.977H220.392H219.806H219.219H218.63H218.041H217.451H216.86H216.267H215.674H215.079H214.484H213.888H213.29H212.692H212.093H211.493H210.892H210.29H209.687H209.083H208.478H207.872H207.266H206.659H206.05H205.441H204.831H204.221H203.609H202.997H202.384H201.77H201.155H200.539H199.923H199.306H198.689H198.07H197.451H196.831H196.21H195.589H194.967H194.345H193.721H193.097H192.473H191.848H191.222H190.596H189.969H189.341H188.713H188.084H187.455H186.825H186.195H185.564H184.932H184.3H183.668H183.035H182.401H181.768H181.133H180.498H179.863H179.227H178.591H177.955H177.318H176.681H176.043H175.405H174.767H174.128H173.489H172.849H172.21H171.569H170.929H170.288H169.648H169.006H168.365H167.723H167.081H166.439H165.797H165.154H164.511H163.868H163.225H162.581H161.938H161.294H160.65H160.006H159.362H158.718H158.074H157.429H156.785H156.14H155.495H154.851H154.206H153.561H152.916H152.272H151.627H150.982H150.337H149.692H149.048H148.403H147.758H147.114H146.469H145.825H145.18H144.536H143.892H143.248H142.604H141.96H141.317H140.673H140.03H139.387H138.744H138.102H137.459H136.817H136.175H135.533H134.892H134.25H133.609H132.969H132.328H131.688H131.048H130.409H129.77H129.131H128.493H127.855H127.217H126.58H125.943H125.306H124.67H124.034H123.399H122.764H122.13H121.496H120.862H120.229H119.597H118.965H118.333H117.702H117.072H116.442H115.813H115.184H114.556H113.928H113.301H112.674H112.049H111.423H110.799H110.175H109.551H108.929H108.307H107.685H107.065H106.445H105.825H105.207H104.589H103.972H103.356H102.74H102.125H101.511H100.898H100.286H99.674H99.0632H98.4532H97.844H97.2357H96.6282H96.0216H95.4159H94.8111H94.2071H93.6041H93.0019H92.4007H91.8005H91.2011H90.6028H90.0053H89.4089H88.8134H88.219H87.6255H87.0331H86.4416H85.8512H85.2619H84.6736H84.0864H83.5002H82.9151H82.3311H81.7482H81.1665H80.5858H80.0063H79.4279H78.8506H78.2746H77.6997H77.126H76.5534H75.9821H75.412H74.8431H74.2754H73.709H73.1438H72.5799H72.0172H71.4559H70.8958H70.337H69.7795H69.2234H68.6685H68.1151H67.5629H67.0122H66.4627H65.9147H65.3681H64.8228H64.279H63.7366H63.1956H62.656H62.1179H61.5813H61.0461H60.5124H59.9802H59.4495H58.9202H58.3926H57.8664H57.3418H56.8187H56.2971H55.7772H55.2588H54.742H54.2268H53.7132H53.2012H52.6909H52.1821H51.6751H51.1696H50.6659H50.1638H49.6634H49.1647H48.6677H48.1724H47.6789H47.187H46.697H46.2086H45.7221H45.2373H44.7543H44.2731H43.7937H43.3161H42.8403H42.3664H41.8943H41.424H40.9557H40.4892H40.0245H39.5618H39.101H38.6421H38.1851H37.73H37.2769H36.8257H36.3765H35.9293H35.484H35.0408H34.5995H34.1603H33.723H33.2878H32.8547H32.4236H31.9945H31.5675H31.1427H30.7198H30.2991H29.8805H29.4641H29.0497H28.6375H28.2275H27.8196H27.4138H27.0103H26.6089H26.2098H25.8128H25.4181H25.0256H24.6353H24.2473H23.8615H23.478H23.0968H22.7179H22.3413H21.967H21.595H21.2253H20.8579H20.493H20.1303H19.7701H19.4122H19.0567H18.7036H18.3529H18.0046H17.6587H17.3153H16.9743H16.6358H16.2997H15.9662H15.6351H15.3065H14.9804H14.6568H14.3358H14.0172C10.0822 103.601 6.35737 101.82 3.88618 98.7562C1.41462 95.6925 0.462538 91.6755 1.29435 87.8284C3.78443 76.3288 7.19978 60.5537 10.4469 45.5556C12.7122 35.0926 14.8955 25.0078 16.6258 17.0166L16.6258 17.0165C18.6493 7.66946 26.9181 1 36.4815 1H36.754H37.0284H37.3045H37.5825H37.8622H38.1438H38.4271H38.7122H38.9991H39.2877H39.5781H39.8703H40.1641H40.4598H40.7571H41.0561H41.3569H41.6594H41.9635H42.2694H42.5769H42.8861H43.197H43.5095H43.8236H44.1394H44.4569H44.7759H45.0966H45.4189H45.7427H46.0682H46.3953H46.7239H47.0541H47.3859H47.7192H48.0541H48.3905H48.7285H49.0679H49.4089H49.7514H50.0954H50.4409H50.7879H51.1364H51.4863H51.8377H52.1906H52.5448H52.9006H53.2578H53.6163H53.9764H54.3378H54.7006H55.0648H55.4304H55.7974H56.1658H56.5355H56.9066H57.279H57.6527H58.0278H58.4043H58.782H59.161H59.5414H59.923H60.306H60.6902H61.0756H61.4624H61.8504H62.2396H62.6301H63.0218H63.4148H63.8089H64.2043H64.6009H64.9987H65.3976H65.7978H66.1991H66.6015H67.0052H67.41H67.8159H68.2229H68.6311H69.0404H69.4508H69.8623H70.2749H70.6886H71.1034H71.5192H71.9361H72.3541H72.7731H73.1931H73.6142H74.0363H74.4594H74.8836H75.3087H75.7348H76.162H76.5901H77.0191H77.4492H77.8802H78.3121H78.745H79.1788H79.6136H80.0492H80.4858H80.9233H81.3617H81.8009H82.2411H82.6821H83.1239H83.5667H84.0103H84.4547H84.8999H85.346H85.7929H86.2406H86.6892H87.1385H87.5886H88.0394H88.4911H88.9435H89.3967H89.8506H90.3053H90.7607H91.2168H91.6736H92.1312H92.5894H93.0484H93.508H93.9684H94.4294H94.891H95.3533H95.8163H96.2799H96.7441H97.209H97.6745H98.1406H98.6073H99.0746H99.5425H100.011H100.48H100.95H101.42H101.89H102.362H102.834H103.306H103.779H104.252H104.726H105.2H105.675H106.15H106.626H107.102H107.579H108.056H108.534H109.012H109.49H109.969H110.449H110.928H111.408H111.889H112.37H112.851H113.333H113.815H114.297H114.78H115.262H115.746H116.229H116.713H117.198H117.682H118.167H118.652H119.138H119.623H120.109H120.595H121.082H121.568H122.055H122.542H123.03H123.517H124.005H124.493H124.981H125.469H125.958H126.446H126.935H127.424H127.913H128.402H128.891H129.38H129.87H130.359H130.849H131.339H131.829H132.319H132.809H133.298H133.789H134.279H134.769H135.259H135.749H136.239H136.729H137.219H137.709H138.199H138.69H139.18H139.669H140.159H140.649H141.139H141.629H142.118H142.608H143.097H143.586H144.076H144.565H145.053H145.542H146.031H146.519H147.008H147.496H147.984H148.471H148.959H149.446H149.934H150.42H150.907H151.394H151.88H152.366H152.852H153.337H153.822H154.307H154.792H155.276H155.76H156.244H156.727H157.21H157.693H158.176H158.658H159.139H159.621H160.102H160.582H161.062H161.542H162.022H162.501H162.979H163.457H163.935H164.412H164.889H165.366H165.842H166.317H166.792H167.266H167.74H168.214H168.687H169.159H169.631H170.103H170.573H171.044H171.514H171.983H172.451H172.919H173.387H173.854H174.32H174.786H175.251H175.715H176.179H176.642H177.105H177.566H178.028H178.488H178.948H179.407H179.865H180.323H180.78H181.237H181.692H182.147H182.601H183.054H183.507H183.959H184.41H184.86H185.31H185.759H186.207H186.654H187.1H187.545H187.99H188.434H188.877H189.319H189.76H190.201H190.64H191.079H191.516H191.953H192.389H192.824H193.258H193.691H194.124H194.555H194.985H195.414H195.843H196.27H196.697H197.122H197.546H197.97H198.392H198.814H199.234H199.653H200.071H200.489H200.905H201.32H201.734H202.147H202.558H202.969H203.379H203.787H204.195H204.601H205.006H205.41H205.813H206.214H206.615H207.014H207.412H207.809H208.205H208.599H208.992H209.384H209.775H210.165H210.553H210.94H211.326H211.711H212.094H212.476H212.857H213.236H213.614H213.991H214.366H214.74H215.113H215.485H215.855H216.223H216.591H216.957H217.321H217.685H218.046H218.407H218.766H219.123H219.479H219.834H220.187H220.539H220.889H221.238H221.586H221.932H222.276H222.619H222.96H223.3H223.639H223.975H224.311H224.644H224.977H225.307H225.636H225.964H226.29H226.614H226.937H227.258H227.577H227.895H228.211H228.526H228.839H229.15H229.46H229.768H230.074H230.379H230.682H230.983H231.282H231.58H231.876H232.171H232.463H232.754H233.043H233.331H233.616H233.9H234.182H234.462H234.741H235.017H235.292H235.565H235.836H236.106H236.373H236.639H236.903H237.164H237.424H237.683H237.939H238.193H238.446H238.696H238.945H239.192H239.436H239.679H239.92H240.159H240.396H240.631H240.864H241.095H241.324H241.551H241.775H241.998H242.219H242.438H242.655H242.87H243.082H243.293H243.502H243.708H243.913C249.021 1 253.704 3.84442 256.059 8.37714L272.343 39.7132L272.767 40.5275L273.614 40.1757L290.079 33.341L279.763 53.0639Z" fill="#E7ECFF"/>
<path d="M279.763 53.0639L279.521 53.5259L279.762 53.9885L297.861 88.8184C299.49 91.955 299.365 95.7141 297.53 98.7351L298.341 99.2275L297.53 98.7353C295.696 101.756 292.417 103.601 288.883 103.601H288.557H288.229H287.898H287.565H287.229H286.891H286.55H286.207H285.861H285.513H285.163H284.81H284.455H284.097H283.737H283.375H283.01H282.643H282.273H281.902H281.528H281.151H280.773H280.392H280.008H279.623H279.235H278.845H278.453H278.058H277.662H277.263H276.862H276.458H276.053H275.645H275.235H274.823H274.409H273.993H273.575H273.154H272.732H272.307H271.88H271.451H271.02H270.587H270.152H269.715H269.276H268.835H268.392H267.947H267.5H267.051H266.6H266.147H265.693H265.236H264.777H264.316H263.854H263.39H262.923H262.455H261.985H261.513H261.039H260.564H260.086H259.607H259.126H258.643H258.159H257.672H257.184H256.694H256.203H255.709H255.214H254.718H254.219H253.719H253.217H252.713H252.208H251.701H251.193H250.683H250.171H249.657H249.142H248.626H248.107H247.588H247.066H246.543H246.019H245.493H244.965H244.436H243.906H243.374H242.84H242.305H241.769H241.231H240.691H240.15H239.608H239.065H238.519H237.973H237.425H236.876H236.325H235.773H235.22H234.665H234.109H233.552H232.993H232.433H231.872H231.31H230.746H230.181H229.614H229.047H228.478H227.908H227.337H226.765H226.191H225.616H225.04H224.463H223.885H223.305H222.725H222.143H221.561H220.977H220.392H219.806H219.219H218.63H218.041H217.451H216.86H216.267H215.674H215.079H214.484H213.888H213.29H212.692H212.093H211.493H210.892H210.29H209.687H209.083H208.478H207.872H207.266H206.659H206.05H205.441H204.831H204.221H203.609H202.997H202.384H201.77H201.155H200.539H199.923H199.306H198.689H198.07H197.451H196.831H196.21H195.589H194.967H194.345H193.721H193.097H192.473H191.848H191.222H190.596H189.969H189.341H188.713H188.084H187.455H186.825H186.195H185.564H184.932H184.3H183.668H183.035H182.401H181.768H181.133H180.498H179.863H179.227H178.591H177.955H177.318H176.681H176.043H175.405H174.767H174.128H173.489H172.849H172.21H171.569H170.929H170.288H169.648H169.006H168.365H167.723H167.081H166.439H165.797H165.154H164.511H163.868H163.225H162.581H161.938H161.294H160.65H160.006H159.362H158.718H158.074H157.429H156.785H156.14H155.495H154.851H154.206H153.561H152.916H152.272H151.627H150.982H150.337H149.692H149.048H148.403H147.758H147.114H146.469H145.825H145.18H144.536H143.892H143.248H142.604H141.96H141.317H140.673H140.03H139.387H138.744H138.102H137.459H136.817H136.175H135.533H134.892H134.25H133.609H132.969H132.328H131.688H131.048H130.409H129.77H129.131H128.493H127.855H127.217H126.58H125.943H125.306H124.67H124.034H123.399H122.764H122.13H121.496H120.862H120.229H119.597H118.965H118.333H117.702H117.072H116.442H115.813H115.184H114.556H113.928H113.301H112.674H112.049H111.423H110.799H110.175H109.551H108.929H108.307H107.685H107.065H106.445H105.825H105.207H104.589H103.972H103.356H102.74H102.125H101.511H100.898H100.286H99.674H99.0632H98.4532H97.844H97.2357H96.6282H96.0216H95.4159H94.8111H94.2071H93.6041H93.0019H92.4007H91.8005H91.2011H90.6028H90.0053H89.4089H88.8134H88.219H87.6255H87.0331H86.4416H85.8512H85.2619H84.6736H84.0864H83.5002H82.9151H82.3311H81.7482H81.1665H80.5858H80.0063H79.4279H78.8506H78.2746H77.6997H77.126H76.5534H75.9821H75.412H74.8431H74.2754H73.709H73.1438H72.5799H72.0172H71.4559H70.8958H70.337H69.7795H69.2234H68.6685H68.1151H67.5629H67.0122H66.4627H65.9147H65.3681H64.8228H64.279H63.7366H63.1956H62.656H62.1179H61.5813H61.0461H60.5124H59.9802H59.4495H58.9202H58.3926H57.8664H57.3418H56.8187H56.2971H55.7772H55.2588H54.742H54.2268H53.7132H53.2012H52.6909H52.1821H51.6751H51.1696H50.6659H50.1638H49.6634H49.1647H48.6677H48.1724H47.6789H47.187H46.697H46.2086H45.7221H45.2373H44.7543H44.2731H43.7937H43.3161H42.8403H42.3664H41.8943H41.424H40.9557H40.4892H40.0245H39.5618H39.101H38.6421H38.1851H37.73H37.2769H36.8257H36.3765H35.9293H35.484H35.0408H34.5995H34.1603H33.723H33.2878H32.8547H32.4236H31.9945H31.5675H31.1427H30.7198H30.2991H29.8805H29.4641H29.0497H28.6375H28.2275H27.8196H27.4138H27.0103H26.6089H26.2098H25.8128H25.4181H25.0256H24.6353H24.2473H23.8615H23.478H23.0968H22.7179H22.3413H21.967H21.595H21.2253H20.8579H20.493H20.1303H19.7701H19.4122H19.0567H18.7036H18.3529H18.0046H17.6587H17.3153H16.9743H16.6358H16.2997H15.9662H15.6351H15.3065H14.9804H14.6568H14.3358H14.0172C10.0822 103.601 6.35737 101.82 3.88618 98.7562C1.41462 95.6925 0.462538 91.6755 1.29435 87.8284C3.78443 76.3288 7.19978 60.5537 10.4469 45.5556C12.7122 35.0926 14.8955 25.0078 16.6258 17.0166L16.6258 17.0165C18.6493 7.66946 26.9181 1 36.4815 1H36.754H37.0284H37.3045H37.5825H37.8622H38.1438H38.4271H38.7122H38.9991H39.2877H39.5781H39.8703H40.1641H40.4598H40.7571H41.0561H41.3569H41.6594H41.9635H42.2694H42.5769H42.8861H43.197H43.5095H43.8236H44.1394H44.4569H44.7759H45.0966H45.4189H45.7427H46.0682H46.3953H46.7239H47.0541H47.3859H47.7192H48.0541H48.3905H48.7285H49.0679H49.4089H49.7514H50.0954H50.4409H50.7879H51.1364H51.4863H51.8377H52.1906H52.5448H52.9006H53.2578H53.6163H53.9764H54.3378H54.7006H55.0648H55.4304H55.7974H56.1658H56.5355H56.9066H57.279H57.6527H58.0278H58.4043H58.782H59.161H59.5414H59.923H60.306H60.6902H61.0756H61.4624H61.8504H62.2396H62.6301H63.0218H63.4148H63.8089H64.2043H64.6009H64.9987H65.3976H65.7978H66.1991H66.6015H67.0052H67.41H67.8159H68.2229H68.6311H69.0404H69.4508H69.8623H70.2749H70.6886H71.1034H71.5192H71.9361H72.3541H72.7731H73.1931H73.6142H74.0363H74.4594H74.8836H75.3087H75.7348H76.162H76.5901H77.0191H77.4492H77.8802H78.3121H78.745H79.1788H79.6136H80.0492H80.4858H80.9233H81.3617H81.8009H82.2411H82.6821H83.1239H83.5667H84.0103H84.4547H84.8999H85.346H85.7929H86.2406H86.6892H87.1385H87.5886H88.0394H88.4911H88.9435H89.3967H89.8506H90.3053H90.7607H91.2168H91.6736H92.1312H92.5894H93.0484H93.508H93.9684H94.4294H94.891H95.3533H95.8163H96.2799H96.7441H97.209H97.6745H98.1406H98.6073H99.0746H99.5425H100.011H100.48H100.95H101.42H101.89H102.362H102.834H103.306H103.779H104.252H104.726H105.2H105.675H106.15H106.626H107.102H107.579H108.056H108.534H109.012H109.49H109.969H110.449H110.928H111.408H111.889H112.37H112.851H113.333H113.815H114.297H114.78H115.262H115.746H116.229H116.713H117.198H117.682H118.167H118.652H119.138H119.623H120.109H120.595H121.082H121.568H122.055H122.542H123.03H123.517H124.005H124.493H124.981H125.469H125.958H126.446H126.935H127.424H127.913H128.402H128.891H129.38H129.87H130.359H130.849H131.339H131.829H132.319H132.809H133.298H133.789H134.279H134.769H135.259H135.749H136.239H136.729H137.219H137.709H138.199H138.69H139.18H139.669H140.159H140.649H141.139H141.629H142.118H142.608H143.097H143.586H144.076H144.565H145.053H145.542H146.031H146.519H147.008H147.496H147.984H148.471H148.959H149.446H149.934H150.42H150.907H151.394H151.88H152.366H152.852H153.337H153.822H154.307H154.792H155.276H155.76H156.244H156.727H157.21H157.693H158.176H158.658H159.139H159.621H160.102H160.582H161.062H161.542H162.022H162.501H162.979H163.457H163.935H164.412H164.889H165.366H165.842H166.317H166.792H167.266H167.74H168.214H168.687H169.159H169.631H170.103H170.573H171.044H171.514H171.983H172.451H172.919H173.387H173.854H174.32H174.786H175.251H175.715H176.179H176.642H177.105H177.566H178.028H178.488H178.948H179.407H179.865H180.323H180.78H181.237H181.692H182.147H182.601H183.054H183.507H183.959H184.41H184.86H185.31H185.759H186.207H186.654H187.1H187.545H187.99H188.434H188.877H189.319H189.76H190.201H190.64H191.079H191.516H191.953H192.389H192.824H193.258H193.691H194.124H194.555H194.985H195.414H195.843H196.27H196.697H197.122H197.546H197.97H198.392H198.814H199.234H199.653H200.071H200.489H200.905H201.32H201.734H202.147H202.558H202.969H203.379H203.787H204.195H204.601H205.006H205.41H205.813H206.214H206.615H207.014H207.412H207.809H208.205H208.599H208.992H209.384H209.775H210.165H210.553H210.94H211.326H211.711H212.094H212.476H212.857H213.236H213.614H213.991H214.366H214.74H215.113H215.485H215.855H216.223H216.591H216.957H217.321H217.685H218.046H218.407H218.766H219.123H219.479H219.834H220.187H220.539H220.889H221.238H221.586H221.932H222.276H222.619H222.96H223.3H223.639H223.975H224.311H224.644H224.977H225.307H225.636H225.964H226.29H226.614H226.937H227.258H227.577H227.895H228.211H228.526H228.839H229.15H229.46H229.768H230.074H230.379H230.682H230.983H231.282H231.58H231.876H232.171H232.463H232.754H233.043H233.331H233.616H233.9H234.182H234.462H234.741H235.017H235.292H235.565H235.836H236.106H236.373H236.639H236.903H237.164H237.424H237.683H237.939H238.193H238.446H238.696H238.945H239.192H239.436H239.679H239.92H240.159H240.396H240.631H240.864H241.095H241.324H241.551H241.775H241.998H242.219H242.438H242.655H242.87H243.082H243.293H243.502H243.708H243.913C249.021 1 253.704 3.84442 256.059 8.37714L272.343 39.7132L272.767 40.5275L273.614 40.1757L290.079 33.341L279.763 53.0639Z" fill="url(#paint0_radial_115_48)" fill-opacity="0.2"/>
<path d="M279.763 53.0639L279.521 53.5259L279.762 53.9885L297.861 88.8184C299.49 91.955 299.365 95.7141 297.53 98.7351L298.341 99.2275L297.53 98.7353C295.696 101.756 292.417 103.601 288.883 103.601H288.557H288.229H287.898H287.565H287.229H286.891H286.55H286.207H285.861H285.513H285.163H284.81H284.455H284.097H283.737H283.375H283.01H282.643H282.273H281.902H281.528H281.151H280.773H280.392H280.008H279.623H279.235H278.845H278.453H278.058H277.662H277.263H276.862H276.458H276.053H275.645H275.235H274.823H274.409H273.993H273.575H273.154H272.732H272.307H271.88H271.451H271.02H270.587H270.152H269.715H269.276H268.835H268.392H267.947H267.5H267.051H266.6H266.147H265.693H265.236H264.777H264.316H263.854H263.39H262.923H262.455H261.985H261.513H261.039H260.564H260.086H259.607H259.126H258.643H258.159H257.672H257.184H256.694H256.203H255.709H255.214H254.718H254.219H253.719H253.217H252.713H252.208H251.701H251.193H250.683H250.171H249.657H249.142H248.626H248.107H247.588H247.066H246.543H246.019H245.493H244.965H244.436H243.906H243.374H242.84H242.305H241.769H241.231H240.691H240.15H239.608H239.065H238.519H237.973H237.425H236.876H236.325H235.773H235.22H234.665H234.109H233.552H232.993H232.433H231.872H231.31H230.746H230.181H229.614H229.047H228.478H227.908H227.337H226.765H226.191H225.616H225.04H224.463H223.885H223.305H222.725H222.143H221.561H220.977H220.392H219.806H219.219H218.63H218.041H217.451H216.86H216.267H215.674H215.079H214.484H213.888H213.29H212.692H212.093H211.493H210.892H210.29H209.687H209.083H208.478H207.872H207.266H206.659H206.05H205.441H204.831H204.221H203.609H202.997H202.384H201.77H201.155H200.539H199.923H199.306H198.689H198.07H197.451H196.831H196.21H195.589H194.967H194.345H193.721H193.097H192.473H191.848H191.222H190.596H189.969H189.341H188.713H188.084H187.455H186.825H186.195H185.564H184.932H184.3H183.668H183.035H182.401H181.768H181.133H180.498H179.863H179.227H178.591H177.955H177.318H176.681H176.043H175.405H174.767H174.128H173.489H172.849H172.21H171.569H170.929H170.288H169.648H169.006H168.365H167.723H167.081H166.439H165.797H165.154H164.511H163.868H163.225H162.581H161.938H161.294H160.65H160.006H159.362H158.718H158.074H157.429H156.785H156.14H155.495H154.851H154.206H153.561H152.916H152.272H151.627H150.982H150.337H149.692H149.048H148.403H147.758H147.114H146.469H145.825H145.18H144.536H143.892H143.248H142.604H141.96H141.317H140.673H140.03H139.387H138.744H138.102H137.459H136.817H136.175H135.533H134.892H134.25H133.609H132.969H132.328H131.688H131.048H130.409H129.77H129.131H128.493H127.855H127.217H126.58H125.943H125.306H124.67H124.034H123.399H122.764H122.13H121.496H120.862H120.229H119.597H118.965H118.333H117.702H117.072H116.442H115.813H115.184H114.556H113.928H113.301H112.674H112.049H111.423H110.799H110.175H109.551H108.929H108.307H107.685H107.065H106.445H105.825H105.207H104.589H103.972H103.356H102.74H102.125H101.511H100.898H100.286H99.674H99.0632H98.4532H97.844H97.2357H96.6282H96.0216H95.4159H94.8111H94.2071H93.6041H93.0019H92.4007H91.8005H91.2011H90.6028H90.0053H89.4089H88.8134H88.219H87.6255H87.0331H86.4416H85.8512H85.2619H84.6736H84.0864H83.5002H82.9151H82.3311H81.7482H81.1665H80.5858H80.0063H79.4279H78.8506H78.2746H77.6997H77.126H76.5534H75.9821H75.412H74.8431H74.2754H73.709H73.1438H72.5799H72.0172H71.4559H70.8958H70.337H69.7795H69.2234H68.6685H68.1151H67.5629H67.0122H66.4627H65.9147H65.3681H64.8228H64.279H63.7366H63.1956H62.656H62.1179H61.5813H61.0461H60.5124H59.9802H59.4495H58.9202H58.3926H57.8664H57.3418H56.8187H56.2971H55.7772H55.2588H54.742H54.2268H53.7132H53.2012H52.6909H52.1821H51.6751H51.1696H50.6659H50.1638H49.6634H49.1647H48.6677H48.1724H47.6789H47.187H46.697H46.2086H45.7221H45.2373H44.7543H44.2731H43.7937H43.3161H42.8403H42.3664H41.8943H41.424H40.9557H40.4892H40.0245H39.5618H39.101H38.6421H38.1851H37.73H37.2769H36.8257H36.3765H35.9293H35.484H35.0408H34.5995H34.1603H33.723H33.2878H32.8547H32.4236H31.9945H31.5675H31.1427H30.7198H30.2991H29.8805H29.4641H29.0497H28.6375H28.2275H27.8196H27.4138H27.0103H26.6089H26.2098H25.8128H25.4181H25.0256H24.6353H24.2473H23.8615H23.478H23.0968H22.7179H22.3413H21.967H21.595H21.2253H20.8579H20.493H20.1303H19.7701H19.4122H19.0567H18.7036H18.3529H18.0046H17.6587H17.3153H16.9743H16.6358H16.2997H15.9662H15.6351H15.3065H14.9804H14.6568H14.3358H14.0172C10.0822 103.601 6.35737 101.82 3.88618 98.7562C1.41462 95.6925 0.462538 91.6755 1.29435 87.8284C3.78443 76.3288 7.19978 60.5537 10.4469 45.5556C12.7122 35.0926 14.8955 25.0078 16.6258 17.0166L16.6258 17.0165C18.6493 7.66946 26.9181 1 36.4815 1H36.754H37.0284H37.3045H37.5825H37.8622H38.1438H38.4271H38.7122H38.9991H39.2877H39.5781H39.8703H40.1641H40.4598H40.7571H41.0561H41.3569H41.6594H41.9635H42.2694H42.5769H42.8861H43.197H43.5095H43.8236H44.1394H44.4569H44.7759H45.0966H45.4189H45.7427H46.0682H46.3953H46.7239H47.0541H47.3859H47.7192H48.0541H48.3905H48.7285H49.0679H49.4089H49.7514H50.0954H50.4409H50.7879H51.1364H51.4863H51.8377H52.1906H52.5448H52.9006H53.2578H53.6163H53.9764H54.3378H54.7006H55.0648H55.4304H55.7974H56.1658H56.5355H56.9066H57.279H57.6527H58.0278H58.4043H58.782H59.161H59.5414H59.923H60.306H60.6902H61.0756H61.4624H61.8504H62.2396H62.6301H63.0218H63.4148H63.8089H64.2043H64.6009H64.9987H65.3976H65.7978H66.1991H66.6015H67.0052H67.41H67.8159H68.2229H68.6311H69.0404H69.4508H69.8623H70.2749H70.6886H71.1034H71.5192H71.9361H72.3541H72.7731H73.1931H73.6142H74.0363H74.4594H74.8836H75.3087H75.7348H76.162H76.5901H77.0191H77.4492H77.8802H78.3121H78.745H79.1788H79.6136H80.0492H80.4858H80.9233H81.3617H81.8009H82.2411H82.6821H83.1239H83.5667H84.0103H84.4547H84.8999H85.346H85.7929H86.2406H86.6892H87.1385H87.5886H88.0394H88.4911H88.9435H89.3967H89.8506H90.3053H90.7607H91.2168H91.6736H92.1312H92.5894H93.0484H93.508H93.9684H94.4294H94.891H95.3533H95.8163H96.2799H96.7441H97.209H97.6745H98.1406H98.6073H99.0746H99.5425H100.011H100.48H100.95H101.42H101.89H102.362H102.834H103.306H103.779H104.252H104.726H105.2H105.675H106.15H106.626H107.102H107.579H108.056H108.534H109.012H109.49H109.969H110.449H110.928H111.408H111.889H112.37H112.851H113.333H113.815H114.297H114.78H115.262H115.746H116.229H116.713H117.198H117.682H118.167H118.652H119.138H119.623H120.109H120.595H121.082H121.568H122.055H122.542H123.03H123.517H124.005H124.493H124.981H125.469H125.958H126.446H126.935H127.424H127.913H128.402H128.891H129.38H129.87H130.359H130.849H131.339H131.829H132.319H132.809H133.298H133.789H134.279H134.769H135.259H135.749H136.239H136.729H137.219H137.709H138.199H138.69H139.18H139.669H140.159H140.649H141.139H141.629H142.118H142.608H143.097H143.586H144.076H144.565H145.053H145.542H146.031H146.519H147.008H147.496H147.984H148.471H148.959H149.446H149.934H150.42H150.907H151.394H151.88H152.366H152.852H153.337H153.822H154.307H154.792H155.276H155.76H156.244H156.727H157.21H157.693H158.176H158.658H159.139H159.621H160.102H160.582H161.062H161.542H162.022H162.501H162.979H163.457H163.935H164.412H164.889H165.366H165.842H166.317H166.792H167.266H167.74H168.214H168.687H169.159H169.631H170.103H170.573H171.044H171.514H171.983H172.451H172.919H173.387H173.854H174.32H174.786H175.251H175.715H176.179H176.642H177.105H177.566H178.028H178.488H178.948H179.407H179.865H180.323H180.78H181.237H181.692H182.147H182.601H183.054H183.507H183.959H184.41H184.86H185.31H185.759H186.207H186.654H187.1H187.545H187.99H188.434H188.877H189.319H189.76H190.201H190.64H191.079H191.516H191.953H192.389H192.824H193.258H193.691H194.124H194.555H194.985H195.414H195.843H196.27H196.697H197.122H197.546H197.97H198.392H198.814H199.234H199.653H200.071H200.489H200.905H201.32H201.734H202.147H202.558H202.969H203.379H203.787H204.195H204.601H205.006H205.41H205.813H206.214H206.615H207.014H207.412H207.809H208.205H208.599H208.992H209.384H209.775H210.165H210.553H210.94H211.326H211.711H212.094H212.476H212.857H213.236H213.614H213.991H214.366H214.74H215.113H215.485H215.855H216.223H216.591H216.957H217.321H217.685H218.046H218.407H218.766H219.123H219.479H219.834H220.187H220.539H220.889H221.238H221.586H221.932H222.276H222.619H222.96H223.3H223.639H223.975H224.311H224.644H224.977H225.307H225.636H225.964H226.29H226.614H226.937H227.258H227.577H227.895H228.211H228.526H228.839H229.15H229.46H229.768H230.074H230.379H230.682H230.983H231.282H231.58H231.876H232.171H232.463H232.754H233.043H233.331H233.616H233.9H234.182H234.462H234.741H235.017H235.292H235.565H235.836H236.106H236.373H236.639H236.903H237.164H237.424H237.683H237.939H238.193H238.446H238.696H238.945H239.192H239.436H239.679H239.92H240.159H240.396H240.631H240.864H241.095H241.324H241.551H241.775H241.998H242.219H242.438H242.655H242.87H243.082H243.293H243.502H243.708H243.913C249.021 1 253.704 3.84442 256.059 8.37714L272.343 39.7132L272.767 40.5275L273.614 40.1757L290.079 33.341L279.763 53.0639Z" stroke="#6A8BFF" stroke-width="2"/>
<defs>
<radialGradient id="paint0_radial_115_48" cx="0" cy="0" r="1" gradientUnits="userSpaceOnUse" gradientTransform="translate(124.445 46.2735) rotate(20.0401) scale(158.263 453.907)">
<stop stop-color="#0038FF" stop-opacity="0"/>
<stop offset="1" stop-color="#0038FF"/>
</radialGradient>
</defs>
</svg>
