<svg width="300" height="105" viewBox="0 0 300 105" fill="none" xmlns="http://www.w3.org/2000/svg">
<path d="M20.2371 53.0436L20.4789 53.5057L20.2384 53.9684L2.13913 88.7852C0.509949 91.9204 0.635345 95.6779 2.46988 98.6975L1.64819 99.1967L2.46997 98.6977C4.3035 101.717 7.58237 103.561 11.1171 103.561H11.4429H11.7712H12.1021H12.4353H12.7711H13.1094H13.4501H13.7932H14.1388H14.4868H14.8373H15.1901H15.5454H15.903H16.263H16.6254H16.9901H17.3572H17.7266H18.0984H18.4724H18.8488H19.2275H19.6084H19.9917H20.3772H20.765H21.155H21.5472H21.9417H22.3384H22.7374H23.1385H23.5418H23.9473H24.3549H24.7648H25.1767H25.5909H26.0071H26.4254H26.8459H27.2685H27.6932H28.1199H28.5487H28.9796H29.4125H29.8475H30.2845H30.7235H31.1646H31.6076H32.0527H32.4997H32.9487H33.3996H33.8525H34.3074H34.7642H35.2229H35.6835H36.146H36.6104H37.0767H37.5449H38.015H38.4868H38.9606H39.4361H39.9135H40.3927H40.8737H41.3566H41.8412H42.3275H42.8156H43.3055H43.7972H44.2905H44.7856H45.2824H45.781H46.2812H46.7831H47.2866H47.7919H48.2988H48.8073H49.3175H49.8293H50.3427H50.8577H51.3744H51.8926H52.4124H52.9337H53.4566H53.9811H54.5071H55.0346H55.5637H56.0942H56.6263H57.1598H57.6948H58.2313H58.7693H59.3087H59.8495H60.3918H60.9354H61.4805H62.027H62.5749H63.1242H63.6748H64.2268H64.7801H65.3348H65.8908H66.4481H67.0068H67.5667H68.1279H68.6904H69.2542H69.8193H70.3856H70.9531H71.5219H72.0918H72.663H73.2354H73.809H74.3838H74.9597H75.5368H76.1151H76.6945H77.2751H77.8567H78.4395H79.0233H79.6083H80.1944H80.7815H81.3697H81.9589H82.5492H83.1405H83.7328H84.3262H84.9205H85.5159H86.1122H86.7095H87.3078H87.907H88.5072H89.1083H89.7103H90.3133H90.9171H91.5219H92.1275H92.734H93.3414H93.9496H94.5587H95.1686H95.7793H96.3909H97.0032H97.6164H98.2303H98.845H99.4605H100.077H100.694H101.311H101.93H102.549H103.169H103.79H104.411H105.033H105.655H106.279H106.903H107.527H108.152H108.778H109.404H110.031H110.659H111.287H111.916H112.545H113.175H113.805H114.436H115.068H115.7H116.332H116.965H117.599H118.232H118.867H119.502H120.137H120.773H121.409H122.045H122.682H123.319H123.957H124.595H125.233H125.872H126.511H127.151H127.79H128.431H129.071H129.712H130.352H130.994H131.635H132.277H132.919H133.561H134.203H134.846H135.489H136.132H136.775H137.419H138.062H138.706H139.35H139.994H140.638H141.282H141.926H142.571H143.215H143.86H144.505H145.149H145.794H146.439H147.084H147.728H148.373H149.018H149.663H150.308H150.952H151.597H152.242H152.886H153.531H154.175H154.82H155.464H156.108H156.752H157.396H158.04H158.683H159.327H159.97H160.613H161.256H161.898H162.541H163.183H163.825H164.467H165.108H165.75H166.391H167.031H167.672H168.312H168.952H169.591H170.23H170.869H171.507H172.145H172.783H173.42H174.057H174.694H175.33H175.966H176.601H177.236H177.87H178.504H179.138H179.771H180.403H181.035H181.667H182.298H182.928H183.558H184.187H184.816H185.444H186.072H186.699H187.326H187.951H188.577H189.201H189.825H190.449H191.071H191.693H192.315H192.935H193.555H194.175H194.793H195.411H196.028H196.644H197.26H197.875H198.489H199.102H199.714H200.326H200.937H201.547H202.156H202.764H203.372H203.978H204.584H205.189H205.793H206.396H206.998H207.599H208.2H208.799H209.397H209.995H210.591H211.187H211.781H212.374H212.967H213.558H214.149H214.738H215.326H215.914H216.5H217.085H217.669H218.252H218.834H219.414H219.994H220.572H221.149H221.725H222.3H222.874H223.447H224.018H224.588H225.157H225.725H226.291H226.856H227.42H227.983H228.544H229.104H229.663H230.22H230.777H231.331H231.885H232.437H232.988H233.537H234.085H234.632H235.177H235.721H236.263H236.804H237.344H237.882H238.419H238.954H239.488H240.02H240.551H241.08H241.607H242.134H242.658H243.181H243.703H244.223H244.741H245.258H245.773H246.287H246.799H247.309H247.818H248.325H248.83H249.334H249.836H250.337H250.835H251.332H251.828H252.321H252.813H253.303H253.791H254.278H254.763H255.246H255.727H256.206H256.684H257.16H257.634H258.106H258.576H259.044H259.511H259.975H260.438H260.899H261.358H261.815H262.27H262.723H263.174H263.623H264.071H264.516H264.959H265.4H265.84H266.277H266.712H267.145H267.576H268.005H268.432H268.857H269.28H269.701H270.119H270.536H270.95H271.362H271.773H272.18H272.586H272.99H273.391H273.79H274.187H274.582H274.974H275.365H275.753H276.138H276.522H276.903H277.282H277.659H278.033H278.405H278.775H279.142H279.507H279.87H280.23H280.588H280.943H281.296H281.647H281.995H282.341H282.685H283.026H283.364H283.7H284.034H284.365H284.694H285.02H285.343H285.664H285.983C289.918 103.561 293.643 101.781 296.114 98.7186L296.892 99.3466L296.114 98.7186C298.585 95.6562 299.537 91.6408 298.706 87.7955C296.217 76.3052 292.803 60.545 289.557 45.5585C287.291 35.0924 285.106 25.0036 283.374 17.0103L283.374 17.0103C281.351 7.6671 273.082 1 263.518 1H263.246H262.972H262.695H262.418H262.138H261.856H261.573H261.288H261.001H260.712H260.422H260.13H259.836H259.54H259.243H258.944H258.643H258.341H258.036H257.731H257.423H257.114H256.803H256.491H256.176H255.861H255.543H255.224H254.903H254.581H254.257H253.932H253.605H253.276H252.946H252.614H252.281H251.946H251.609H251.272H250.932H250.591H250.249H249.905H249.559H249.212H248.864H248.514H248.162H247.809H247.455H247.099H246.742H246.384H246.024H245.662H245.299H244.935H244.57H244.203H243.834H243.465H243.093H242.721H242.347H241.972H241.596H241.218H240.839H240.459H240.077H239.694H239.31H238.924H238.538H238.15H237.76H237.37H236.978H236.585H236.191H235.796H235.399H235.001H234.602H234.202H233.801H233.398H232.995H232.59H232.184H231.777H231.369H230.96H230.549H230.138H229.725H229.311H228.897H228.481H228.064H227.646H227.227H226.807H226.386H225.964H225.541H225.116H224.691H224.265H223.838H223.41H222.981H222.551H222.12H221.688H221.255H220.821H220.386H219.951H219.514H219.077H218.638H218.199H217.759H217.318H216.876H216.433H215.99H215.545H215.1H214.654H214.207H213.759H213.311H212.862H212.411H211.961H211.509H211.056H210.603H210.149H209.695H209.239H208.783H208.326H207.869H207.411H206.952H206.492H206.032H205.571H205.109H204.647H204.184H203.72H203.256H202.791H202.325H201.859H201.393H200.925H200.458H199.989H199.52H199.05H198.58H198.11H197.638H197.166H196.694H196.221H195.748H195.274H194.8H194.325H193.85H193.374H192.898H192.421H191.944H191.466H190.988H190.51H190.031H189.551H189.072H188.592H188.111H187.63H187.149H186.667H186.185H185.703H185.22H184.738H184.254H183.771H183.287H182.802H182.318H181.833H181.348H180.862H180.377H179.891H179.405H178.918H178.432H177.945H177.458H176.97H176.483H175.995H175.507H175.019H174.531H174.042H173.554H173.065H172.576H172.087H171.598H171.109H170.62H170.13H169.641H169.151H168.661H168.171H167.681H167.191H166.702H166.211H165.721H165.231H164.741H164.251H163.761H163.271H162.781H162.291H161.801H161.31H160.82H160.331H159.841H159.351H158.861H158.371H157.882H157.392H156.903H156.414H155.924H155.435H154.947H154.458H153.969H153.481H152.992H152.504H152.016H151.529H151.041H150.554H150.066H149.58H149.093H148.606H148.12H147.634H147.148H146.663H146.178H145.693H145.208H144.724H144.24H143.756H143.273H142.79H142.307H141.824H141.342H140.861H140.379H139.898H139.418H138.938H138.458H137.978H137.499H137.021H136.543H136.065H135.588H135.111H134.634H134.158H133.683H133.208H132.734H132.26H131.786H131.313H130.841H130.369H129.897H129.427H128.956H128.486H128.017H127.549H127.081H126.613H126.146H125.68H125.214H124.749H124.285H123.821H123.358H122.895H122.434H121.972H121.512H121.052H120.593H120.135H119.677H119.22H118.763H118.308H117.853H117.399H116.946H116.493H116.041H115.59H115.14H114.69H114.241H113.793H113.346H112.9H112.455H112.01H111.566H111.123H110.681H110.24H109.799H109.36H108.921H108.484H108.047H107.611H107.176H106.742H106.309H105.876H105.445H105.015H104.586H104.157H103.73H103.303H102.878H102.454H102.03H101.608H101.186H100.766H100.347H99.9286H99.5114H99.0953H98.6802H98.2663H97.8533H97.4415H97.0309H96.6213H96.2128H95.8054H95.3992H94.9941H94.5902H94.1874H93.7858H93.3853H92.986H92.588H92.1911H91.7953H91.4009H91.0076H90.6155H90.2247H89.8351H89.4468H89.0597H88.6739H88.2894H87.9061H87.5241H87.1434H86.764H86.3859H86.0091H85.6337H85.2596H84.8868H84.5153H84.1452H83.7765H83.4092H83.0432H82.6786H82.3154H81.9536H81.5932H81.2342H80.8767H80.5206H80.1659H79.8126H79.4608H79.1105H78.7617H78.4143H78.0684H77.724H77.3811H77.0397H76.6998H76.3615H76.0246H75.6893H75.3556H75.0234H74.6927H74.3637H74.0362H73.7103H73.386H73.0633H72.7422H72.4227H72.1048H71.7886H71.474H71.161H70.8497H70.5401H70.2321H69.9258H69.6212H69.3183H69.017H68.7175H68.4197H68.1236H67.8293H67.5367H67.2458H66.9567H66.6693H66.3838H66.0999H65.8179H65.5377H65.2592H64.9826H64.7078H64.4348H64.1636H63.8943H63.6268H63.3612H63.0974H62.8355H62.5755H62.3174H62.0611H61.8068H61.5543H61.3038H61.0552H60.8085H60.5637H60.3209H60.0801H59.8412H59.6043H59.3693H59.1364H58.9054H58.6764H58.4495H58.2245H58.0016H57.7807H57.5618H57.345H57.1302H56.9175H56.7069H56.4983H56.2918H56.0874C50.9788 1 46.2956 3.84345 43.9409 8.37429L43.0535 7.91314L43.9408 8.3744L27.6566 39.6985L27.2334 40.5125L26.386 40.1609L9.92151 33.3289L20.2371 53.0436Z" fill="#E7ECFF"/>
<path d="M20.2371 53.0436L20.4789 53.5057L20.2384 53.9684L2.13913 88.7852C0.509949 91.9204 0.635345 95.6779 2.46988 98.6975L1.64819 99.1967L2.46997 98.6977C4.3035 101.717 7.58237 103.561 11.1171 103.561H11.4429H11.7712H12.1021H12.4353H12.7711H13.1094H13.4501H13.7932H14.1388H14.4868H14.8373H15.1901H15.5454H15.903H16.263H16.6254H16.9901H17.3572H17.7266H18.0984H18.4724H18.8488H19.2275H19.6084H19.9917H20.3772H20.765H21.155H21.5472H21.9417H22.3384H22.7374H23.1385H23.5418H23.9473H24.3549H24.7648H25.1767H25.5909H26.0071H26.4254H26.8459H27.2685H27.6932H28.1199H28.5487H28.9796H29.4125H29.8475H30.2845H30.7235H31.1646H31.6076H32.0527H32.4997H32.9487H33.3996H33.8525H34.3074H34.7642H35.2229H35.6835H36.146H36.6104H37.0767H37.5449H38.015H38.4868H38.9606H39.4361H39.9135H40.3927H40.8737H41.3566H41.8412H42.3275H42.8156H43.3055H43.7972H44.2905H44.7856H45.2824H45.781H46.2812H46.7831H47.2866H47.7919H48.2988H48.8073H49.3175H49.8293H50.3427H50.8577H51.3744H51.8926H52.4124H52.9337H53.4566H53.9811H54.5071H55.0346H55.5637H56.0942H56.6263H57.1598H57.6948H58.2313H58.7693H59.3087H59.8495H60.3918H60.9354H61.4805H62.027H62.5749H63.1242H63.6748H64.2268H64.7801H65.3348H65.8908H66.4481H67.0068H67.5667H68.1279H68.6904H69.2542H69.8193H70.3856H70.9531H71.5219H72.0918H72.663H73.2354H73.809H74.3838H74.9597H75.5368H76.1151H76.6945H77.2751H77.8567H78.4395H79.0233H79.6083H80.1944H80.7815H81.3697H81.9589H82.5492H83.1405H83.7328H84.3262H84.9205H85.5159H86.1122H86.7095H87.3078H87.907H88.5072H89.1083H89.7103H90.3133H90.9171H91.5219H92.1275H92.734H93.3414H93.9496H94.5587H95.1686H95.7793H96.3909H97.0032H97.6164H98.2303H98.845H99.4605H100.077H100.694H101.311H101.93H102.549H103.169H103.79H104.411H105.033H105.655H106.279H106.903H107.527H108.152H108.778H109.404H110.031H110.659H111.287H111.916H112.545H113.175H113.805H114.436H115.068H115.7H116.332H116.965H117.599H118.232H118.867H119.502H120.137H120.773H121.409H122.045H122.682H123.319H123.957H124.595H125.233H125.872H126.511H127.151H127.79H128.431H129.071H129.712H130.352H130.994H131.635H132.277H132.919H133.561H134.203H134.846H135.489H136.132H136.775H137.419H138.062H138.706H139.35H139.994H140.638H141.282H141.926H142.571H143.215H143.86H144.505H145.149H145.794H146.439H147.084H147.728H148.373H149.018H149.663H150.308H150.952H151.597H152.242H152.886H153.531H154.175H154.82H155.464H156.108H156.752H157.396H158.04H158.683H159.327H159.97H160.613H161.256H161.898H162.541H163.183H163.825H164.467H165.108H165.75H166.391H167.031H167.672H168.312H168.952H169.591H170.23H170.869H171.507H172.145H172.783H173.42H174.057H174.694H175.33H175.966H176.601H177.236H177.87H178.504H179.138H179.771H180.403H181.035H181.667H182.298H182.928H183.558H184.187H184.816H185.444H186.072H186.699H187.326H187.951H188.577H189.201H189.825H190.449H191.071H191.693H192.315H192.935H193.555H194.175H194.793H195.411H196.028H196.644H197.26H197.875H198.489H199.102H199.714H200.326H200.937H201.547H202.156H202.764H203.372H203.978H204.584H205.189H205.793H206.396H206.998H207.599H208.2H208.799H209.397H209.995H210.591H211.187H211.781H212.374H212.967H213.558H214.149H214.738H215.326H215.914H216.5H217.085H217.669H218.252H218.834H219.414H219.994H220.572H221.149H221.725H222.3H222.874H223.447H224.018H224.588H225.157H225.725H226.291H226.856H227.42H227.983H228.544H229.104H229.663H230.22H230.777H231.331H231.885H232.437H232.988H233.537H234.085H234.632H235.177H235.721H236.263H236.804H237.344H237.882H238.419H238.954H239.488H240.02H240.551H241.08H241.607H242.134H242.658H243.181H243.703H244.223H244.741H245.258H245.773H246.287H246.799H247.309H247.818H248.325H248.83H249.334H249.836H250.337H250.835H251.332H251.828H252.321H252.813H253.303H253.791H254.278H254.763H255.246H255.727H256.206H256.684H257.16H257.634H258.106H258.576H259.044H259.511H259.975H260.438H260.899H261.358H261.815H262.27H262.723H263.174H263.623H264.071H264.516H264.959H265.4H265.84H266.277H266.712H267.145H267.576H268.005H268.432H268.857H269.28H269.701H270.119H270.536H270.95H271.362H271.773H272.18H272.586H272.99H273.391H273.79H274.187H274.582H274.974H275.365H275.753H276.138H276.522H276.903H277.282H277.659H278.033H278.405H278.775H279.142H279.507H279.87H280.23H280.588H280.943H281.296H281.647H281.995H282.341H282.685H283.026H283.364H283.7H284.034H284.365H284.694H285.02H285.343H285.664H285.983C289.918 103.561 293.643 101.781 296.114 98.7186L296.892 99.3466L296.114 98.7186C298.585 95.6562 299.537 91.6408 298.706 87.7955C296.217 76.3052 292.803 60.545 289.557 45.5585C287.291 35.0924 285.106 25.0036 283.374 17.0103L283.374 17.0103C281.351 7.6671 273.082 1 263.518 1H263.246H262.972H262.695H262.418H262.138H261.856H261.573H261.288H261.001H260.712H260.422H260.13H259.836H259.54H259.243H258.944H258.643H258.341H258.036H257.731H257.423H257.114H256.803H256.491H256.176H255.861H255.543H255.224H254.903H254.581H254.257H253.932H253.605H253.276H252.946H252.614H252.281H251.946H251.609H251.272H250.932H250.591H250.249H249.905H249.559H249.212H248.864H248.514H248.162H247.809H247.455H247.099H246.742H246.384H246.024H245.662H245.299H244.935H244.57H244.203H243.834H243.465H243.093H242.721H242.347H241.972H241.596H241.218H240.839H240.459H240.077H239.694H239.31H238.924H238.538H238.15H237.76H237.37H236.978H236.585H236.191H235.796H235.399H235.001H234.602H234.202H233.801H233.398H232.995H232.59H232.184H231.777H231.369H230.96H230.549H230.138H229.725H229.311H228.897H228.481H228.064H227.646H227.227H226.807H226.386H225.964H225.541H225.116H224.691H224.265H223.838H223.41H222.981H222.551H222.12H221.688H221.255H220.821H220.386H219.951H219.514H219.077H218.638H218.199H217.759H217.318H216.876H216.433H215.99H215.545H215.1H214.654H214.207H213.759H213.311H212.862H212.411H211.961H211.509H211.056H210.603H210.149H209.695H209.239H208.783H208.326H207.869H207.411H206.952H206.492H206.032H205.571H205.109H204.647H204.184H203.72H203.256H202.791H202.325H201.859H201.393H200.925H200.458H199.989H199.52H199.05H198.58H198.11H197.638H197.166H196.694H196.221H195.748H195.274H194.8H194.325H193.85H193.374H192.898H192.421H191.944H191.466H190.988H190.51H190.031H189.551H189.072H188.592H188.111H187.63H187.149H186.667H186.185H185.703H185.22H184.738H184.254H183.771H183.287H182.802H182.318H181.833H181.348H180.862H180.377H179.891H179.405H178.918H178.432H177.945H177.458H176.97H176.483H175.995H175.507H175.019H174.531H174.042H173.554H173.065H172.576H172.087H171.598H171.109H170.62H170.13H169.641H169.151H168.661H168.171H167.681H167.191H166.702H166.211H165.721H165.231H164.741H164.251H163.761H163.271H162.781H162.291H161.801H161.31H160.82H160.331H159.841H159.351H158.861H158.371H157.882H157.392H156.903H156.414H155.924H155.435H154.947H154.458H153.969H153.481H152.992H152.504H152.016H151.529H151.041H150.554H150.066H149.58H149.093H148.606H148.12H147.634H147.148H146.663H146.178H145.693H145.208H144.724H144.24H143.756H143.273H142.79H142.307H141.824H141.342H140.861H140.379H139.898H139.418H138.938H138.458H137.978H137.499H137.021H136.543H136.065H135.588H135.111H134.634H134.158H133.683H133.208H132.734H132.26H131.786H131.313H130.841H130.369H129.897H129.427H128.956H128.486H128.017H127.549H127.081H126.613H126.146H125.68H125.214H124.749H124.285H123.821H123.358H122.895H122.434H121.972H121.512H121.052H120.593H120.135H119.677H119.22H118.763H118.308H117.853H117.399H116.946H116.493H116.041H115.59H115.14H114.69H114.241H113.793H113.346H112.9H112.455H112.01H111.566H111.123H110.681H110.24H109.799H109.36H108.921H108.484H108.047H107.611H107.176H106.742H106.309H105.876H105.445H105.015H104.586H104.157H103.73H103.303H102.878H102.454H102.03H101.608H101.186H100.766H100.347H99.9286H99.5114H99.0953H98.6802H98.2663H97.8533H97.4415H97.0309H96.6213H96.2128H95.8054H95.3992H94.9941H94.5902H94.1874H93.7858H93.3853H92.986H92.588H92.1911H91.7953H91.4009H91.0076H90.6155H90.2247H89.8351H89.4468H89.0597H88.6739H88.2894H87.9061H87.5241H87.1434H86.764H86.3859H86.0091H85.6337H85.2596H84.8868H84.5153H84.1452H83.7765H83.4092H83.0432H82.6786H82.3154H81.9536H81.5932H81.2342H80.8767H80.5206H80.1659H79.8126H79.4608H79.1105H78.7617H78.4143H78.0684H77.724H77.3811H77.0397H76.6998H76.3615H76.0246H75.6893H75.3556H75.0234H74.6927H74.3637H74.0362H73.7103H73.386H73.0633H72.7422H72.4227H72.1048H71.7886H71.474H71.161H70.8497H70.5401H70.2321H69.9258H69.6212H69.3183H69.017H68.7175H68.4197H68.1236H67.8293H67.5367H67.2458H66.9567H66.6693H66.3838H66.0999H65.8179H65.5377H65.2592H64.9826H64.7078H64.4348H64.1636H63.8943H63.6268H63.3612H63.0974H62.8355H62.5755H62.3174H62.0611H61.8068H61.5543H61.3038H61.0552H60.8085H60.5637H60.3209H60.0801H59.8412H59.6043H59.3693H59.1364H58.9054H58.6764H58.4495H58.2245H58.0016H57.7807H57.5618H57.345H57.1302H56.9175H56.7069H56.4983H56.2918H56.0874C50.9788 1 46.2956 3.84345 43.9409 8.37429L43.0535 7.91314L43.9408 8.3744L27.6566 39.6985L27.2334 40.5125L26.386 40.1609L9.92151 33.3289L20.2371 53.0436Z" fill="url(#paint0_radial_116_51)" fill-opacity="0.2"/>
<path d="M20.2371 53.0436L20.4789 53.5057L20.2384 53.9684L2.13913 88.7852C0.509949 91.9204 0.635345 95.6779 2.46988 98.6975L1.64819 99.1967L2.46997 98.6977C4.3035 101.717 7.58237 103.561 11.1171 103.561H11.4429H11.7712H12.1021H12.4353H12.7711H13.1094H13.4501H13.7932H14.1388H14.4868H14.8373H15.1901H15.5454H15.903H16.263H16.6254H16.9901H17.3572H17.7266H18.0984H18.4724H18.8488H19.2275H19.6084H19.9917H20.3772H20.765H21.155H21.5472H21.9417H22.3384H22.7374H23.1385H23.5418H23.9473H24.3549H24.7648H25.1767H25.5909H26.0071H26.4254H26.8459H27.2685H27.6932H28.1199H28.5487H28.9796H29.4125H29.8475H30.2845H30.7235H31.1646H31.6076H32.0527H32.4997H32.9487H33.3996H33.8525H34.3074H34.7642H35.2229H35.6835H36.146H36.6104H37.0767H37.5449H38.015H38.4868H38.9606H39.4361H39.9135H40.3927H40.8737H41.3566H41.8412H42.3275H42.8156H43.3055H43.7972H44.2905H44.7856H45.2824H45.781H46.2812H46.7831H47.2866H47.7919H48.2988H48.8073H49.3175H49.8293H50.3427H50.8577H51.3744H51.8926H52.4124H52.9337H53.4566H53.9811H54.5071H55.0346H55.5637H56.0942H56.6263H57.1598H57.6948H58.2313H58.7693H59.3087H59.8495H60.3918H60.9354H61.4805H62.027H62.5749H63.1242H63.6748H64.2268H64.7801H65.3348H65.8908H66.4481H67.0068H67.5667H68.1279H68.6904H69.2542H69.8193H70.3856H70.9531H71.5219H72.0918H72.663H73.2354H73.809H74.3838H74.9597H75.5368H76.1151H76.6945H77.2751H77.8567H78.4395H79.0233H79.6083H80.1944H80.7815H81.3697H81.9589H82.5492H83.1405H83.7328H84.3262H84.9205H85.5159H86.1122H86.7095H87.3078H87.907H88.5072H89.1083H89.7103H90.3133H90.9171H91.5219H92.1275H92.734H93.3414H93.9496H94.5587H95.1686H95.7793H96.3909H97.0032H97.6164H98.2303H98.845H99.4605H100.077H100.694H101.311H101.93H102.549H103.169H103.79H104.411H105.033H105.655H106.279H106.903H107.527H108.152H108.778H109.404H110.031H110.659H111.287H111.916H112.545H113.175H113.805H114.436H115.068H115.7H116.332H116.965H117.599H118.232H118.867H119.502H120.137H120.773H121.409H122.045H122.682H123.319H123.957H124.595H125.233H125.872H126.511H127.151H127.79H128.431H129.071H129.712H130.352H130.994H131.635H132.277H132.919H133.561H134.203H134.846H135.489H136.132H136.775H137.419H138.062H138.706H139.35H139.994H140.638H141.282H141.926H142.571H143.215H143.86H144.505H145.149H145.794H146.439H147.084H147.728H148.373H149.018H149.663H150.308H150.952H151.597H152.242H152.886H153.531H154.175H154.82H155.464H156.108H156.752H157.396H158.04H158.683H159.327H159.97H160.613H161.256H161.898H162.541H163.183H163.825H164.467H165.108H165.75H166.391H167.031H167.672H168.312H168.952H169.591H170.23H170.869H171.507H172.145H172.783H173.42H174.057H174.694H175.33H175.966H176.601H177.236H177.87H178.504H179.138H179.771H180.403H181.035H181.667H182.298H182.928H183.558H184.187H184.816H185.444H186.072H186.699H187.326H187.951H188.577H189.201H189.825H190.449H191.071H191.693H192.315H192.935H193.555H194.175H194.793H195.411H196.028H196.644H197.26H197.875H198.489H199.102H199.714H200.326H200.937H201.547H202.156H202.764H203.372H203.978H204.584H205.189H205.793H206.396H206.998H207.599H208.2H208.799H209.397H209.995H210.591H211.187H211.781H212.374H212.967H213.558H214.149H214.738H215.326H215.914H216.5H217.085H217.669H218.252H218.834H219.414H219.994H220.572H221.149H221.725H222.3H222.874H223.447H224.018H224.588H225.157H225.725H226.291H226.856H227.42H227.983H228.544H229.104H229.663H230.22H230.777H231.331H231.885H232.437H232.988H233.537H234.085H234.632H235.177H235.721H236.263H236.804H237.344H237.882H238.419H238.954H239.488H240.02H240.551H241.08H241.607H242.134H242.658H243.181H243.703H244.223H244.741H245.258H245.773H246.287H246.799H247.309H247.818H248.325H248.83H249.334H249.836H250.337H250.835H251.332H251.828H252.321H252.813H253.303H253.791H254.278H254.763H255.246H255.727H256.206H256.684H257.16H257.634H258.106H258.576H259.044H259.511H259.975H260.438H260.899H261.358H261.815H262.27H262.723H263.174H263.623H264.071H264.516H264.959H265.4H265.84H266.277H266.712H267.145H267.576H268.005H268.432H268.857H269.28H269.701H270.119H270.536H270.95H271.362H271.773H272.18H272.586H272.99H273.391H273.79H274.187H274.582H274.974H275.365H275.753H276.138H276.522H276.903H277.282H277.659H278.033H278.405H278.775H279.142H279.507H279.87H280.23H280.588H280.943H281.296H281.647H281.995H282.341H282.685H283.026H283.364H283.7H284.034H284.365H284.694H285.02H285.343H285.664H285.983C289.918 103.561 293.643 101.781 296.114 98.7186L296.892 99.3466L296.114 98.7186C298.585 95.6562 299.537 91.6408 298.706 87.7955C296.217 76.3052 292.803 60.545 289.557 45.5585C287.291 35.0924 285.106 25.0036 283.374 17.0103L283.374 17.0103C281.351 7.6671 273.082 1 263.518 1H263.246H262.972H262.695H262.418H262.138H261.856H261.573H261.288H261.001H260.712H260.422H260.13H259.836H259.54H259.243H258.944H258.643H258.341H258.036H257.731H257.423H257.114H256.803H256.491H256.176H255.861H255.543H255.224H254.903H254.581H254.257H253.932H253.605H253.276H252.946H252.614H252.281H251.946H251.609H251.272H250.932H250.591H250.249H249.905H249.559H249.212H248.864H248.514H248.162H247.809H247.455H247.099H246.742H246.384H246.024H245.662H245.299H244.935H244.57H244.203H243.834H243.465H243.093H242.721H242.347H241.972H241.596H241.218H240.839H240.459H240.077H239.694H239.31H238.924H238.538H238.15H237.76H237.37H236.978H236.585H236.191H235.796H235.399H235.001H234.602H234.202H233.801H233.398H232.995H232.59H232.184H231.777H231.369H230.96H230.549H230.138H229.725H229.311H228.897H228.481H228.064H227.646H227.227H226.807H226.386H225.964H225.541H225.116H224.691H224.265H223.838H223.41H222.981H222.551H222.12H221.688H221.255H220.821H220.386H219.951H219.514H219.077H218.638H218.199H217.759H217.318H216.876H216.433H215.99H215.545H215.1H214.654H214.207H213.759H213.311H212.862H212.411H211.961H211.509H211.056H210.603H210.149H209.695H209.239H208.783H208.326H207.869H207.411H206.952H206.492H206.032H205.571H205.109H204.647H204.184H203.72H203.256H202.791H202.325H201.859H201.393H200.925H200.458H199.989H199.52H199.05H198.58H198.11H197.638H197.166H196.694H196.221H195.748H195.274H194.8H194.325H193.85H193.374H192.898H192.421H191.944H191.466H190.988H190.51H190.031H189.551H189.072H188.592H188.111H187.63H187.149H186.667H186.185H185.703H185.22H184.738H184.254H183.771H183.287H182.802H182.318H181.833H181.348H180.862H180.377H179.891H179.405H178.918H178.432H177.945H177.458H176.97H176.483H175.995H175.507H175.019H174.531H174.042H173.554H173.065H172.576H172.087H171.598H171.109H170.62H170.13H169.641H169.151H168.661H168.171H167.681H167.191H166.702H166.211H165.721H165.231H164.741H164.251H163.761H163.271H162.781H162.291H161.801H161.31H160.82H160.331H159.841H159.351H158.861H158.371H157.882H157.392H156.903H156.414H155.924H155.435H154.947H154.458H153.969H153.481H152.992H152.504H152.016H151.529H151.041H150.554H150.066H149.58H149.093H148.606H148.12H147.634H147.148H146.663H146.178H145.693H145.208H144.724H144.24H143.756H143.273H142.79H142.307H141.824H141.342H140.861H140.379H139.898H139.418H138.938H138.458H137.978H137.499H137.021H136.543H136.065H135.588H135.111H134.634H134.158H133.683H133.208H132.734H132.26H131.786H131.313H130.841H130.369H129.897H129.427H128.956H128.486H128.017H127.549H127.081H126.613H126.146H125.68H125.214H124.749H124.285H123.821H123.358H122.895H122.434H121.972H121.512H121.052H120.593H120.135H119.677H119.22H118.763H118.308H117.853H117.399H116.946H116.493H116.041H115.59H115.14H114.69H114.241H113.793H113.346H112.9H112.455H112.01H111.566H111.123H110.681H110.24H109.799H109.36H108.921H108.484H108.047H107.611H107.176H106.742H106.309H105.876H105.445H105.015H104.586H104.157H103.73H103.303H102.878H102.454H102.03H101.608H101.186H100.766H100.347H99.9286H99.5114H99.0953H98.6802H98.2663H97.8533H97.4415H97.0309H96.6213H96.2128H95.8054H95.3992H94.9941H94.5902H94.1874H93.7858H93.3853H92.986H92.588H92.1911H91.7953H91.4009H91.0076H90.6155H90.2247H89.8351H89.4468H89.0597H88.6739H88.2894H87.9061H87.5241H87.1434H86.764H86.3859H86.0091H85.6337H85.2596H84.8868H84.5153H84.1452H83.7765H83.4092H83.0432H82.6786H82.3154H81.9536H81.5932H81.2342H80.8767H80.5206H80.1659H79.8126H79.4608H79.1105H78.7617H78.4143H78.0684H77.724H77.3811H77.0397H76.6998H76.3615H76.0246H75.6893H75.3556H75.0234H74.6927H74.3637H74.0362H73.7103H73.386H73.0633H72.7422H72.4227H72.1048H71.7886H71.474H71.161H70.8497H70.5401H70.2321H69.9258H69.6212H69.3183H69.017H68.7175H68.4197H68.1236H67.8293H67.5367H67.2458H66.9567H66.6693H66.3838H66.0999H65.8179H65.5377H65.2592H64.9826H64.7078H64.4348H64.1636H63.8943H63.6268H63.3612H63.0974H62.8355H62.5755H62.3174H62.0611H61.8068H61.5543H61.3038H61.0552H60.8085H60.5637H60.3209H60.0801H59.8412H59.6043H59.3693H59.1364H58.9054H58.6764H58.4495H58.2245H58.0016H57.7807H57.5618H57.345H57.1302H56.9175H56.7069H56.4983H56.2918H56.0874C50.9788 1 46.2956 3.84345 43.9409 8.37429L43.0535 7.91314L43.9408 8.3744L27.6566 39.6985L27.2334 40.5125L26.386 40.1609L9.92151 33.3289L20.2371 53.0436Z" stroke="#6A8BFF" stroke-width="2"/>
<defs>
<radialGradient id="paint0_radial_116_51" cx="0" cy="0" r="1" gradientUnits="userSpaceOnUse" gradientTransform="translate(175.555 46.256) rotate(159.967) scale(158.256 453.756)">
<stop stop-color="#0038FF" stop-opacity="0"/>
<stop offset="1" stop-color="#0038FF"/>
</radialGradient>
</defs>
</svg>
